<?xml version="1.0" encoding="utf-8"?>
<svg xmlns="http://www.w3.org/2000/svg" fill="none" height="100%" overflow="visible" preserveAspectRatio="none" style="display: block;" viewBox="0 0 130 45" width="100%">
<g id="Flat logo">
<g id="JANUS-h2">
<path d="M129.02 19.4401L129.012 19.4474L129.005 19.4552C128.706 19.7585 128.348 19.907 127.901 19.907H119.465L119.453 19.9076C119.019 19.9296 118.626 20.03 118.291 20.2275C118.005 20.3895 117.77 20.5968 117.606 20.8559C117.446 21.0908 117.359 21.3516 117.359 21.6314C117.359 21.9127 117.447 22.1798 117.601 22.4274L117.606 22.4359L117.612 22.4441C117.773 22.6768 118 22.8778 118.274 23.0536L118.291 23.0644L118.308 23.0737C118.639 23.2455 119.026 23.3335 119.453 23.3552L119.465 23.3557H124.402C125.745 23.3936 126.81 23.6983 127.627 24.2414L127.632 24.2444L127.636 24.2473C128.509 24.7966 129.1 25.4207 129.44 26.1112L129.442 26.1169L129.445 26.1226C129.818 26.8233 130 27.5332 130 28.2566C130 28.9587 129.819 29.6694 129.444 30.3926C129.083 31.0719 128.487 31.7 127.63 32.27C126.816 32.7929 125.752 33.0703 124.408 33.0703H124.192L124.157 33.076C124.059 33.0916 123.962 33.0994 123.866 33.0994H116.103C115.653 33.0994 115.28 32.9573 114.962 32.6688C114.663 32.3618 114.516 32.0026 114.516 31.5692C114.516 31.1395 114.67 30.7942 114.984 30.506L114.992 30.4987L115 30.491C115.298 30.1876 115.657 30.0391 116.103 30.0391H124.578C125.015 30.0596 125.419 29.9834 125.754 29.7703C126.053 29.5916 126.299 29.3748 126.463 29.1107L126.468 29.1034L126.472 29.0959C126.622 28.8301 126.706 28.5489 126.706 28.2566C126.706 28.0222 126.609 27.7682 126.482 27.5234C126.325 27.1969 126.077 26.9363 125.754 26.743C125.433 26.5384 125.043 26.4385 124.611 26.4166L124.6 26.416H119.663C118.319 26.3782 117.24 26.0825 116.4 25.5547C115.545 25.0041 114.95 24.396 114.59 23.7381C114.237 23.0366 114.065 22.3356 114.065 21.6314C114.065 20.9504 114.245 20.2708 114.617 19.5884L114.619 19.5845C114.98 18.9055 115.575 18.2869 116.432 17.7359C117.25 17.2098 118.317 16.9137 119.663 16.8758H119.873L119.908 16.8701C120.005 16.8545 120.102 16.8467 120.199 16.8467H127.901C128.348 16.8467 128.706 16.9952 129.005 17.2986L129.012 17.3063L129.02 17.3137C129.335 17.6018 129.488 17.9471 129.488 18.3769C129.488 18.8066 129.335 19.1519 129.02 19.4401Z" fill="var(--fill-0, #000)" id="Subtract"/>
<path d="M103.569 33.9677C102.747 33.9677 101.933 33.8723 101.128 33.6814C100.338 33.4904 99.5793 33.212 98.8525 32.8461C98.1257 32.4642 97.4858 31.963 96.9328 31.3425C96.3798 30.722 96.0796 29.9822 96.0322 29.123V28.1206V18.3255C96.0322 17.88 96.1902 17.514 96.5062 17.2276C96.838 16.9253 97.2251 16.7742 97.6675 16.7742C98.6155 16.8538 99.129 17.3708 99.208 18.3255V28.3832C99.2396 28.8764 99.4213 29.2901 99.7531 29.6242C100.101 29.9424 100.48 30.197 100.891 30.3879C101.317 30.5788 101.752 30.722 102.194 30.8175C102.652 30.9129 103.111 30.9607 103.569 30.9607C104.027 30.9607 104.477 30.9129 104.92 30.8175C105.378 30.722 105.812 30.5788 106.223 30.3879C106.65 30.197 107.029 29.9424 107.361 29.6242C107.708 29.2901 107.898 28.8764 107.93 28.3832V18.3255C107.93 17.88 108.088 17.514 108.404 17.2276C108.735 16.9253 109.122 16.7742 109.565 16.7742C110.513 16.8538 111.034 17.3708 111.129 18.3255V28.1206V29.123C111.082 29.9822 110.774 30.722 110.205 31.3425C109.652 31.963 109.012 32.4642 108.285 32.8461C107.558 33.212 106.792 33.4904 105.986 33.6814C105.196 33.8723 104.39 33.9677 103.569 33.9677Z" fill="var(--fill-0, #000)" id="Vector"/>
<path d="M85.5365 16.7742C86.3581 16.7742 87.1639 16.8697 87.9539 17.0606C88.7597 17.2515 89.526 17.5379 90.2528 17.9198C90.9796 18.2857 91.6195 18.7789 92.1725 19.3994C92.7413 20.0199 93.0494 20.7598 93.0968 21.6189V22.6213V32.4165C93.002 33.3711 92.4806 33.8882 91.5326 33.9677C91.0902 33.9677 90.7031 33.8246 90.3713 33.5382C90.0553 33.2359 89.8973 32.862 89.8973 32.4165V22.3588C89.8657 21.8656 89.6761 21.4598 89.3285 21.1416C88.9967 20.8075 88.6175 20.545 88.1909 20.3541C87.7801 20.1631 87.3456 20.0199 86.8874 19.9245C86.445 19.829 85.9947 19.7813 85.5365 19.7813C85.0783 19.7813 84.6201 19.829 84.1619 19.9245C83.7195 20.0199 83.285 20.1631 82.8585 20.3541C82.4477 20.545 82.0685 20.8075 81.7209 21.1416C81.3891 21.4598 81.2074 21.8656 81.1758 22.3588V32.4165C81.0968 33.3711 80.5833 33.8882 79.6353 33.9677C79.1929 33.9677 78.8058 33.8246 78.474 33.5382C78.158 33.2359 78 32.862 78 32.4165V22.6213V21.6189C78.0474 20.7598 78.3476 20.0199 78.9006 19.3994C79.4536 18.7789 80.0935 18.2857 80.8203 17.9198C81.5471 17.5379 82.3055 17.2515 83.0954 17.0606C83.9012 16.8697 84.7149 16.7742 85.5365 16.7742Z" fill="var(--fill-0, #000)" id="Vector_2"/>
<path d="M64.2053 29.6553L64.4271 28.9628L64.603 28.4135H71.8232L70.7572 25.5083C70.5004 24.7576 70.2436 24.0526 69.9868 23.3934C69.7461 22.716 69.4653 22.1026 69.1443 21.5532C68.8554 21.0039 68.5264 20.711 68.1573 20.6743C67.7721 20.711 67.4271 21.0039 67.1222 21.5532C66.8172 22.1026 66.5364 22.716 66.2796 23.3934C66.0389 24.0526 65.7901 24.7576 65.5334 25.5083L63.2464 32.6494C63.086 33.0339 62.8773 33.3543 62.6206 33.6107C62.3798 33.8487 62.0107 33.9677 61.5132 33.9677C61.0478 33.9677 60.6626 33.7846 60.3577 33.4184C60.0688 33.0522 59.9404 32.6128 59.9725 32.1001C59.9886 31.862 60.0367 31.6423 60.117 31.4409L62.765 23.6406C63.5032 21.5899 64.2415 19.9328 64.9797 18.6693C65.7019 17.4242 66.7611 16.7925 68.1573 16.7742C69.5375 16.7925 70.5887 17.4242 71.3108 18.6693C72.0491 19.8961 72.7873 21.5532 73.5255 23.6406L76.1736 31.4409C76.2538 31.6423 76.3019 31.862 76.318 32.1001C76.3501 32.6128 76.2137 33.0522 75.9087 33.4184C75.6199 33.7846 75.2427 33.9677 74.7773 33.9677C74.2477 33.9677 73.8545 33.8487 73.5978 33.6107C73.357 33.3543 73.1564 33.0339 72.9959 32.6494L72.5386 31.2212H63.7038L63.919 30.5494L64.2053 29.6553Z" fill="var(--fill-0, #000)" id="Vector_3"/>
<path d="M50.3107 33.9677C49.4891 33.9677 48.6754 33.8723 47.8696 33.6814C47.0796 33.4904 46.3213 33.212 45.5945 32.8461C44.8677 32.4642 44.2278 31.963 43.6748 31.3425C43.1218 30.722 42.8216 29.9822 42.7742 29.123V28.1206V27.7627C42.7742 27.3172 42.9322 26.9512 43.2482 26.6648C43.58 26.3625 43.9671 26.2114 44.4095 26.2114C45.3575 26.2909 45.871 26.808 45.95 27.7627V28.3832C45.9816 28.8764 46.1633 29.2901 46.4951 29.6242C46.8427 29.9424 47.2218 30.197 47.6326 30.3879C48.0592 30.5788 48.4937 30.722 48.9361 30.8175C49.3943 30.9129 49.8525 30.9607 50.3107 30.9607C50.7689 30.9607 51.2192 30.9129 51.6616 30.8175C52.1198 30.722 52.5543 30.5788 52.9651 30.3879C53.3917 30.197 53.7709 29.9424 54.1027 29.6242C54.4503 29.2901 54.6399 28.8764 54.6715 28.3832V18.3255C54.6715 17.88 54.8295 17.514 55.1455 17.2276C55.4773 16.9253 55.8644 16.7742 56.3068 16.7742C57.2548 16.8538 57.7762 17.3708 57.871 18.3255V28.1206V29.123C57.8236 29.9822 57.5155 30.722 56.9467 31.3425C56.3937 31.963 55.7538 32.4642 55.027 32.8461C54.3002 33.212 53.5339 33.4904 52.7281 33.6814C51.9381 33.8723 51.1323 33.9677 50.3107 33.9677Z" fill="var(--fill-0, #000)" id="Vector_4"/>
</g>
<g clip-path="url(#clip0_0_147)" id="logo">
<g id=" 1">
<path d="M24.3919 0.08689C25.3996 -0.316201 26.4192 0.72841 26.4192 2.17576V41.4365C26.4191 42.8861 25.3996 43.9298 24.3919 43.5244L9.70926 39.6338L18.2366 38.6006C18.7459 38.524 19.2129 38.2503 19.5511 37.831C19.8889 37.4118 20.0761 36.8747 20.0774 36.3183V7.31834C20.0738 6.76381 19.8851 6.22925 19.5472 5.81248C19.2092 5.39569 18.7441 5.12456 18.2366 5.0488L9.63309 3.99802L24.3919 0.08689Z" fill="var(--fill-0, #000)" id="Subtract_2"/>
<path d="M2.4508 38.8361L16.6061 37.326C17.1168 37.254 17.5848 36.9974 17.9239 36.6033C18.263 36.2092 18.4504 35.7042 18.4517 35.1811V8.41856C18.4481 7.89735 18.2596 7.3949 17.9206 7.00319C17.5817 6.61148 17.115 6.3567 16.6061 6.28551L2.4508 4.76839C2.14811 4.7241 1.83959 4.746 1.54593 4.83261C1.25227 4.91922 0.980265 5.06855 0.748163 5.27056C0.516061 5.47258 0.329232 5.72262 0.200208 6.0039C0.071185 6.28518 0.00295212 6.5912 8.74222e-05 6.90143V36.6936C0.00124097 37.0047 0.0682419 37.312 0.19656 37.5946C0.324877 37.8772 0.51152 38.1286 0.743866 38.3317C0.976212 38.5349 1.24884 38.685 1.54333 38.772C1.83781 38.859 2.14728 38.8809 2.4508 38.8361Z" fill="var(--fill-0, #FCAD2A)" id="Vector_5"/>
<path d="M31.871 7.93155L28.0968 7.51864V36.0902L31.871 35.7094V7.93155Z" fill="var(--fill-0, #013A7D)" id="Vector_6"/>
<path d="M33.129 8.04932V35.5665C34.1122 35.358 34.8064 34.7995 34.8064 34.0604V9.54775C34.8064 8.81341 34.1122 8.26015 33.129 8.04932Z" fill="var(--fill-0, #028CDC)" id="Vector_7"/>
</g>
</g>
</g>
<defs>
<clipPath id="clip0_0_147">
<rect fill="white" height="43.6129" width="34.8064"/>
</clipPath>
</defs>
</svg>